<svg xmlns="http://www.w3.org/2000/svg" viewBox="0 0 1200 260" width="1200" height="260" role="img" aria-labelledby="t"><title id="t">Diagram, the command flow: /crew-plan: An unclear request becomes a plan. · specialists: The owning agent writes the change. · /crew-review: Security, privacy, tests, performance. · /crew-ship: The commit waits for your approval. · /crew-handoff: State saved, then /clear. · Each step checks the one before it. The commit comes last, with your approval.</title><defs><path id="JetBrainsMonoSemiBold-153" d="M68 110L420 -830L533 -830L181 110L68 110Z"/><path id="JetBrainsMonoSemiBold-69" d="M308 10Q205 10 143 -47Q81 -104 81 -203L81 -347Q81 -446 143 -503Q205 -560 308 -560Q408 -560 468 -508Q528 -456 532 -366L425 -366Q422 -413 390.5 -439Q359 -465 308 -465Q253 -465 221 -434.5Q189 -404 189 -348L189 -203Q189 -146 221 -115.5Q253 -85 308 -85Q360 -85 391 -111Q422 -137 425 -185L532 -185Q528 -95 468 -42.5Q408 10 308 10Z"/><path id="JetBrainsMonoSemiBold-105" d="M104 0L104 -550L211 -550L211 -442L211 -442Q219 -497 258 -528.5Q297 -560 361 -560Q446 -560 493 -507Q540 -454 540 -358L540 -309L432 -309L432 -355Q432 -466 323 -466Q269 -466 240.5 -434.5Q212 -403 212 -343L212 0L104 0Z"/><path id="JetBrainsMonoSemiBold-73" d="M300 10Q199 10 138 -49Q77 -108 77 -210L77 -340Q77 -442 138 -501Q199 -560 300 -560Q368 -560 418 -533.5Q468 -507 495.5 -459Q523 -411 523 -347L523 -248L181 -248L181 -203Q181 -145 213 -113Q245 -81 300 -81Q345 -81 375 -97.5Q405 -114 411 -143L518 -143Q507 -73 447.5 -31.5Q388 10 300 10ZM181 -347L181 -324L419 -324L419 -348Q419 -409 388 -442Q357 -475 300 -475Q243 -475 212 -441.5Q181 -408 181 -347Z"/><path id="JetBrainsMonoSemiBold-116" d="M111 0L23 -550L112 -550L164 -188Q168 -161 171 -129.5Q174 -98 175 -78Q177 -98 180 -129.5Q183 -161 188 -188L252 -550L349 -550L413 -188Q417 -161 420.5 -129.5Q424 -98 426 -78Q428 -98 430.5 -129.5Q433 -161 437 -188L491 -550L577 -550L486 0L372 0L314 -359Q309 -387 305.5 -421Q302 -455 300 -475Q299 -455 294.5 -421Q290 -387 286 -359L226 0L111 0Z"/><path id="JetBrainsMonoSemiBold-161" d="M140 -281L140 -379L460 -379L460 -281L140 -281Z"/><path id="JetBrainsMonoSemiBold-102" d="M84 180L84 -550L191 -550L191 -446Q202 -500 241.5 -530Q281 -560 341 -560Q423 -560 472 -503.5Q521 -447 521 -353L521 -198Q521 -103 472 -46.5Q423 10 341 10Q281 10 241 -21.5Q201 -53 190 -108L189 -108L192 23L192 180L84 180ZM303 -84Q355 -84 384 -111.5Q413 -139 413 -200L413 -351Q413 -411 384 -438.5Q355 -466 303 -466Q251 -466 221.5 -434.5Q192 -403 192 -346L192 -205Q192 -147 221.5 -115.5Q251 -84 303 -84Z"/><path id="JetBrainsMonoSemiBold-91" d="M385 0Q307 0 260.5 -45.5Q214 -91 214 -167L214 -632L29 -632L29 -730L322 -730L322 -169Q322 -136 340 -117Q358 -98 389 -98L555 -98L555 0L385 0Z"/><path id="JetBrainsMonoSemiBold-60" d="M245 10Q161 10 111.5 -37.5Q62 -85 62 -162Q62 -240 115 -287.5Q168 -335 256 -335L408 -335L408 -375Q408 -470 301 -470Q253 -470 224 -452Q195 -434 193 -402L87 -402Q92 -471 149 -515.5Q206 -560 302 -560Q404 -560 460 -511.5Q516 -463 516 -376L516 0L410 0L410 -103L409 -103Q402 -50 359 -20Q316 10 245 10ZM276 -79Q337 -79 372.5 -108.5Q408 -138 408 -188L408 -259L264 -259Q221 -259 195.5 -234Q170 -209 170 -170Q170 -128 198 -103.5Q226 -79 276 -79Z"/><path id="JetBrainsMonoSemiBold-93" d="M84 0L84 -550L191 -550L191 -445L191 -445Q199 -499 237.5 -529.5Q276 -560 338 -560Q420 -560 469 -507.5Q518 -455 518 -366L518 0L410 0L410 -350Q410 -407 381 -437.5Q352 -468 302 -468Q251 -468 221.5 -436Q192 -404 192 -347L192 0L84 0Z"/><path id="InterRegular-1" d="M52 0L593 -1490L813 -1490L1361 0L1161 0L1012 -416L398 -416L254 0L52 0ZM456 -582L953 -582L845 -884Q818 -959 784 -1067.5Q750 -1176 702 -1338Q655 -1173 620 -1063Q585 -953 561 -884L456 -582Z"/><path id="InterRegular-91" d="M338 -670L338 0L158 0L158 -1118L331 -1118L332 -911Q386 -1030 473.5 -1081Q561 -1132 674 -1132Q844 -1132 948 -1027Q1052 -922 1052 -710L1052 0L872 0L872 -695Q872 -824 804.5 -897Q737 -970 620 -970Q499 -970 418.5 -891.5Q338 -813 338 -670Z"/><path id="InterRegular-107" d="M537 14Q368 14 263 -91Q158 -196 158 -408L158 -1118L338 -1118L338 -423Q338 -294 406 -221Q474 -148 591 -148Q711 -148 791.5 -226.5Q872 -305 872 -448L872 -1118L1053 -1118L1053 0L879 0L879 -209Q824 -87 735.5 -36.5Q647 14 537 14Z"/><path id="InterRegular-68" d="M613 24Q461 24 346.5 -48Q232 -120 168 -250Q104 -380 104 -552Q104 -727 168 -857.5Q232 -988 346.5 -1060Q461 -1132 613 -1132Q775 -1132 897.5 -1050.5Q1020 -969 1066 -823L893 -774Q868 -860 795.5 -915.5Q723 -971 613 -971Q501 -971 429 -912.5Q357 -854 322 -759Q287 -664 287 -552Q287 -442 322 -347.5Q357 -253 429 -195Q501 -137 613 -137Q726 -137 799.5 -194.5Q873 -252 898 -343L1070 -294Q1025 -145 901 -60.5Q777 24 613 24Z"/><path id="InterRegular-89" d="M338 -1490L338 0L158 0L158 -1490L338 -1490Z"/><path id="InterRegular-71" d="M628 24Q466 24 348.5 -48Q231 -120 167.5 -249Q104 -378 104 -550Q104 -722 166 -853Q228 -984 341.5 -1058Q455 -1132 607 -1132Q696 -1132 782.5 -1102.5Q869 -1073 939.5 -1007.5Q1010 -942 1052 -835Q1094 -728 1094 -573L1094 -498L286 -498Q293 -323 386.5 -229.5Q480 -136 629 -136Q728 -136 799.5 -179.5Q871 -223 902 -308L1076 -260Q1037 -133 918.5 -54.5Q800 24 628 24ZM287 -650L911 -650Q898 -793 821.5 -882.5Q745 -972 607 -972Q511 -972 441.5 -927Q372 -882 332 -809Q292 -736 287 -650Z"/><path id="InterRegular-58" d="M471 26Q365 26 278.5 -14Q192 -54 141 -131Q90 -208 90 -318Q90 -414 128 -474Q166 -534 229.5 -568.5Q293 -603 370 -620Q447 -637 525 -647Q625 -660 688 -667Q751 -674 781.5 -691Q812 -708 812 -749L812 -755Q812 -859 753 -916.5Q694 -974 578 -974Q457 -974 389 -921.5Q321 -869 295 -810L122 -867Q165 -969 238 -1026.5Q311 -1084 399 -1108Q487 -1132 573 -1132Q629 -1132 700.5 -1118.5Q772 -1105 838.5 -1065Q905 -1025 948.5 -946.5Q992 -868 992 -737L992 0L815 0L815 -152L803 -152Q784 -113 742 -71.5Q700 -30 633 -2Q566 26 471 26ZM502 -133Q602 -133 671 -172Q740 -211 776 -273.5Q812 -336 812 -404L812 -559Q801 -546 764 -535.5Q727 -525 679.5 -517Q632 -509 587.5 -503.5Q543 -498 517 -495Q452 -487 395.5 -467.5Q339 -448 305 -410.5Q271 -373 271 -309Q271 -222 336.5 -177.5Q402 -133 502 -133Z"/><path id="InterRegular-102" d="M158 0L158 -1118L332 -1118L332 -946L344 -946Q375 -1031 454.5 -1082.5Q534 -1134 634 -1134Q654 -1134 681.5 -1133Q709 -1132 725 -1131L725 -950Q717 -952 685 -956Q653 -960 617 -960Q496 -960 417 -886.5Q338 -813 338 -700L338 0L158 0Z"/><path id="InterRegular-101" d="M1096 418L916 418L916 -173L902 -173Q884 -142 848.5 -95.5Q813 -49 748.5 -12.5Q684 24 577 24Q438 24 331 -47Q224 -118 164 -248Q104 -378 104 -556Q104 -733 164.5 -862.5Q225 -992 332 -1062Q439 -1132 578 -1132Q687 -1132 751 -1096Q815 -1060 849.5 -1014.5Q884 -969 902 -939L922 -939L922 -1118L1096 -1118L1096 418ZM604 -137Q756 -137 837 -254Q918 -371 918 -558Q918 -743 838.5 -857Q759 -971 604 -971Q498 -971 427.5 -916Q357 -861 322 -767.5Q287 -674 287 -558Q287 -441 322.5 -345.5Q358 -250 429 -193.5Q500 -137 604 -137Z"/><path id="InterRegular-103" d="M538 24Q366 24 252 -51Q138 -126 108 -271L279 -312Q303 -220 369.5 -177Q436 -134 536 -134Q653 -134 722.5 -184Q792 -234 792 -303Q792 -418 628 -457L442 -501Q142 -572 142 -806Q142 -902 196 -975.5Q250 -1049 343.5 -1090.5Q437 -1132 556 -1132Q729 -1132 824.5 -1056.5Q920 -981 958 -863L795 -821Q772 -881 718.5 -930Q665 -979 557 -979Q457 -979 390.5 -933Q324 -887 324 -817Q324 -755 369 -717.5Q414 -680 512 -657L681 -617Q833 -581 906 -505.5Q979 -430 979 -315Q979 -217 923.5 -140.5Q868 -64 768.5 -20Q669 24 538 24Z"/><path id="InterRegular-106" d="M598 -1118L598 -964L368 -964L368 -290Q368 -215 398.5 -180.5Q429 -146 500 -146Q517 -146 543.5 -150Q570 -154 592 -158L629 -6Q601 4 565.5 9Q530 14 495 14Q350 14 269 -62.5Q188 -139 188 -276L188 -964L20 -964L20 -1118L188 -1118L188 -1384L368 -1384L368 -1118L598 -1118Z"/><path id="InterRegular-66" d="M677 24Q571 24 506 -12.5Q441 -49 406 -95.5Q371 -142 352 -173L332 -173L332 0L158 0L158 -1490L338 -1490L338 -939L352 -939Q371 -969 405 -1014.5Q439 -1060 503 -1096Q567 -1132 676 -1132Q816 -1132 922.5 -1062Q1029 -992 1089.5 -862.5Q1150 -733 1150 -556Q1150 -378 1090 -248Q1030 -118 923.5 -47Q817 24 677 24ZM650 -137Q755 -137 825.5 -193.5Q896 -250 931.5 -345.5Q967 -441 967 -558Q967 -674 932 -767.5Q897 -861 826.5 -916Q756 -971 650 -971Q496 -971 416 -857Q336 -743 336 -558Q336 -371 417 -254Q498 -137 650 -137Z"/><path id="InterRegular-93" d="M613 24Q461 24 346.5 -48Q232 -120 168 -250Q104 -380 104 -552Q104 -727 168 -857.5Q232 -988 346.5 -1060Q461 -1132 613 -1132Q766 -1132 881 -1060Q996 -988 1060 -857.5Q1124 -727 1124 -552Q1124 -380 1060 -250Q996 -120 881 -48Q766 24 613 24ZM613 -137Q726 -137 799 -195Q872 -253 907 -347.5Q942 -442 942 -552Q942 -663 907 -758.5Q872 -854 799 -912.5Q726 -971 613 -971Q501 -971 429 -912.5Q357 -854 322 -759Q287 -664 287 -552Q287 -442 322 -347.5Q357 -253 429 -195Q501 -137 613 -137Z"/><path id="InterRegular-90" d="M158 0L158 -1118L333 -1118L334 -913Q375 -1026 461.5 -1082Q548 -1138 647 -1138Q757 -1138 829.5 -1075.5Q902 -1013 932 -910Q972 -1016 1067.5 -1077Q1163 -1138 1284 -1138Q1381 -1138 1461 -1096Q1541 -1054 1588.5 -969Q1636 -884 1636 -754L1636 0L1456 0L1456 -749Q1456 -870 1388 -922Q1320 -974 1230 -974Q1117 -974 1052 -905Q987 -836 987 -730L987 0L807 0L807 -767Q807 -860 745 -917Q683 -974 588 -974Q490 -974 414 -906Q338 -838 338 -704L338 0L158 0Z"/><path id="InterRegular-100" d="M158 418L158 -1118L332 -1118L332 -939L352 -939Q371 -969 405 -1014.5Q439 -1060 503 -1096Q567 -1132 676 -1132Q816 -1132 922.5 -1062Q1029 -992 1089.5 -862.5Q1150 -733 1150 -556Q1150 -378 1090 -248Q1030 -118 923.5 -47Q817 24 677 24Q571 24 506 -12.5Q441 -49 406 -95.5Q371 -142 352 -173L338 -173L338 418L158 418ZM650 -137Q755 -137 825.5 -193.5Q896 -250 931.5 -345.5Q967 -441 967 -558Q967 -674 932 -767.5Q897 -861 826.5 -916Q756 -971 650 -971Q496 -971 416 -857Q336 -743 336 -558Q336 -371 417 -254Q498 -137 650 -137Z"/><path id="InterRegular-163" d="M295 13Q239 13 199.5 -26.5Q160 -66 160 -122Q160 -178 199.5 -217.5Q239 -257 295 -257Q351 -257 390.5 -217.5Q430 -178 430 -122Q430 -66 390.5 -26.5Q351 13 295 13Z"/><path id="JetBrainsMonoSemiBold-106" d="M278 9Q183 9 129 -34Q75 -77 75 -154L182 -154Q182 -119 207 -99.5Q232 -80 278 -80L322 -80Q369 -80 395 -99.5Q421 -119 421 -155Q421 -218 354 -227L209 -247Q148 -255 115 -295.5Q82 -336 82 -401Q82 -476 132.5 -517.5Q183 -559 276 -559L321 -559Q407 -559 460.5 -518Q514 -477 517 -410L409 -410Q407 -437 383.5 -454.5Q360 -472 321 -472L276 -472Q233 -472 209.5 -453Q186 -434 186 -403Q186 -351 243 -343L379 -325Q526 -305 526 -156Q526 -77 473 -34Q420 9 322 9L278 9Z"/><path id="JetBrainsMonoSemiBold-82" d="M81 0L81 -98L272 -98L272 -452L101 -452L101 -550L380 -550L380 -98L557 -98L557 0L81 0ZM317 -645Q282 -645 261 -663.5Q240 -682 240 -713Q240 -745 261 -763.5Q282 -782 317 -782Q352 -782 373 -763.5Q394 -745 394 -713Q394 -682 373 -663.5Q352 -645 317 -645Z"/><path id="JetBrainsMonoSemiBold-109" d="M355 0Q282 0 239 -42Q196 -84 196 -156L196 -452L41 -452L41 -550L196 -550L196 -705L304 -705L304 -550L526 -550L526 -452L304 -452L304 -157Q304 -131 319 -114.5Q334 -98 360 -98L521 -98L521 0L355 0Z"/><path id="InterRegular-46" d="M98 -1322L98 -1490L1224 -1490L1224 -1322L757 -1322L757 0L567 0L567 -1322L98 -1322Z"/><path id="InterRegular-79" d="M338 -670L338 0L158 0L158 -1490L338 -1490L338 -924Q393 -1036 478.5 -1084Q564 -1132 674 -1132Q844 -1132 948.5 -1027Q1053 -922 1053 -710L1053 0L872 0L872 -695Q872 -824 804.5 -897Q737 -970 620 -970Q499 -970 418.5 -891.5Q338 -813 338 -670Z"/><path id="InterRegular-114" d="M409 0L70 -1118L261 -1118L397 -630Q421 -543 449 -434.5Q477 -326 504 -193Q531 -321 557.5 -429Q584 -537 610 -630L744 -1118L936 -1118L1068 -630Q1092 -540 1118.5 -432.5Q1145 -325 1171 -196Q1199 -324 1226.5 -431.5Q1254 -539 1279 -630L1415 -1118L1606 -1118L1267 0L1088 0L943 -506Q915 -602 889.5 -704Q864 -806 838 -913Q813 -806 786.5 -703Q760 -600 733 -506L588 0L409 0Z"/><path id="InterRegular-80" d="M158 0L158 -1118L338 -1118L338 0L158 0ZM249 -1301Q198 -1301 161 -1336Q124 -1371 124 -1420Q124 -1470 161 -1504.5Q198 -1539 249 -1539Q301 -1539 338 -1504.5Q375 -1470 375 -1420Q375 -1371 338 -1336Q301 -1301 249 -1301Z"/><path id="InterRegular-77" d="M611 442Q425 442 314 374Q203 306 151 214L297 120Q321 152 356.5 191Q392 230 452.5 257.5Q513 285 611 285Q745 285 831.5 221Q918 157 918 19L918 -205L901 -205Q882 -173 847.5 -129Q813 -85 748.5 -51.5Q684 -18 576 -18Q442 -18 335 -81.5Q228 -145 166 -267Q104 -389 104 -564Q104 -737 165 -864.5Q226 -992 333.5 -1062Q441 -1132 580 -1132Q688 -1132 752.5 -1096.5Q817 -1061 852 -1015Q887 -969 906 -939L923 -939L923 -1118L1098 -1118L1098 29Q1098 173 1033 264.5Q968 356 857.5 399Q747 442 611 442ZM606 -178Q758 -178 839 -281.5Q920 -385 920 -568Q920 -746 840.5 -858.5Q761 -971 606 -971Q500 -971 429 -916.5Q358 -862 322.5 -771Q287 -680 287 -568Q287 -396 368 -287Q449 -178 606 -178Z"/><path id="JetBrainsMonoSemiBold-115" d="M231 0L45 -550L159 -550L272 -198Q282 -167 290 -136.5Q298 -106 302 -86Q306 -106 312.5 -136.5Q319 -167 329 -198L441 -550L555 -550L370 0L231 0Z"/><path id="InterRegular-44" d="M657 26Q415 26 272 -88.5Q129 -203 116 -390L311 -390Q319 -306 368 -251.5Q417 -197 493.5 -170.5Q570 -144 657 -144Q758 -144 838.5 -177Q919 -210 966 -270Q1013 -330 1013 -409Q1013 -481 972.5 -526Q932 -571 865 -600Q798 -629 718 -651L538 -702Q358 -753 258 -848Q158 -943 158 -1091Q158 -1217 226 -1311.5Q294 -1406 410 -1458Q526 -1510 670 -1510Q817 -1510 930 -1458Q1043 -1406 1108.5 -1316.5Q1174 -1227 1178 -1114L992 -1114Q979 -1223 888 -1282.5Q797 -1342 664 -1342Q519 -1342 431 -1273.5Q343 -1205 343 -1100Q343 -1022 391.5 -974.5Q440 -927 506.5 -900.5Q573 -874 627 -859L776 -818Q836 -802 908.5 -774Q981 -746 1047 -699.5Q1113 -653 1155.5 -581.5Q1198 -510 1198 -406Q1198 -284 1134.5 -186Q1071 -88 950 -31Q829 26 657 26Z"/><path id="InterRegular-116" d="M140 405L186 249L205 254Q288 276 348 247.5Q408 219 449 99L481 6L54 -1118L251 -1118L489 -455Q515 -382 535.5 -310Q556 -238 575 -168Q594 -238 614.5 -310Q635 -382 661 -455L901 -1118L1097 -1118L606 167Q555 300 473 363Q391 426 272 426Q224 426 189 419Q154 412 140 405Z"/><path id="InterRegular-162" d="M128 359L216 -208L422 -208L266 359L128 359Z"/><path id="InterRegular-113" d="M481 0L54 -1118L251 -1118L489 -455Q515 -382 536 -309.5Q557 -237 576 -167Q595 -237 615.5 -309.5Q636 -382 662 -455L900 -1118L1097 -1118L670 0L481 0Z"/><path id="InterRegular-76" d="M678 -1118L678 -964L420 -964L420 0L240 0L240 -964L20 -964L20 -1118L240 -1118L240 -1267Q240 -1364 285.5 -1429Q331 -1494 404 -1527Q477 -1560 558 -1560Q622 -1560 664 -1549.5Q706 -1539 726 -1530L676 -1376Q662 -1381 639.5 -1387Q617 -1393 579 -1393Q496 -1393 458 -1350.5Q420 -1308 420 -1227L420 -1118L678 -1118Z"/><path id="JetBrainsMonoSemiBold-81" d="M84 0L84 -730L192 -730L192 -550L191 -445L191 -445Q199 -499 237.5 -529.5Q276 -560 338 -560Q420 -560 469 -507.5Q518 -455 518 -366L518 0L410 0L410 -351Q410 -407 381 -437.5Q352 -468 302 -468Q251 -468 221.5 -436Q192 -404 192 -347L192 0L84 0Z"/><path id="JetBrainsMonoSemiBold-71" d="M259 10Q177 10 128 -46Q79 -102 79 -197L79 -352Q79 -448 128 -504Q177 -560 259 -560Q318 -560 358.5 -530Q399 -500 411 -446L408 -573L408 -730L516 -730L516 0L409 0L409 -104Q398 -50 358.5 -20Q319 10 259 10ZM297 -84Q349 -84 378.5 -115.5Q408 -147 408 -205L408 -346Q408 -403 378.5 -434.5Q349 -466 297 -466Q245 -466 216 -438.5Q187 -411 187 -351L187 -200Q187 -139 216 -111.5Q245 -84 297 -84Z"/><path id="JetBrainsMonoSemiBold-95" d="M300 9Q198 9 137.5 -50Q77 -109 77 -211L77 -339Q77 -442 137 -500.5Q197 -559 300 -559Q403 -559 463 -500.5Q523 -442 523 -339L523 -211Q523 -109 462.5 -50Q402 9 300 9ZM300 -86Q354 -86 384.5 -116.5Q415 -147 415 -204L415 -346Q415 -403 384.5 -433.5Q354 -464 300 -464Q246 -464 215.5 -433.5Q185 -403 185 -346L185 -204Q185 -147 215.5 -116.5Q246 -86 300 -86Z"/><path id="JetBrainsMonoSemiBold-78" d="M208 0L208 -377L52 -377L52 -475L208 -475L208 -581Q208 -650 252 -690Q296 -730 372 -730L533 -730L533 -634L374 -634Q316 -634 316 -580L316 -475L533 -475L533 -377L316 -377L316 0L208 0Z"/><path id="InterRegular-70" d="M577 24Q438 24 331 -47Q224 -118 164 -248Q104 -378 104 -556Q104 -733 164.5 -862.5Q225 -992 332 -1062Q439 -1132 578 -1132Q687 -1132 751 -1096Q815 -1060 849.5 -1014.5Q884 -969 902 -939L916 -939L916 -1490L1096 -1490L1096 0L922 0L922 -173L902 -173Q884 -142 848.5 -95.5Q813 -49 748.5 -12.5Q684 24 577 24ZM604 -137Q756 -137 837 -254Q918 -371 918 -558Q918 -743 838.5 -857Q759 -971 604 -971Q498 -971 427.5 -916Q357 -861 322 -767.5Q287 -674 287 -558Q287 -441 322.5 -345.5Q358 -250 429 -193.5Q500 -137 604 -137Z"/><path id="InterRegular-150" d="M692 -1560L212 224L46 224L526 -1560L692 -1560Z"/><path id="InterRegular-13" d="M180 0L180 -1490L1088 -1490L1088 -1322L370 -1322L370 -836L1039 -836L1039 -668L370 -668L370 -168L1097 -168L1097 0L180 0Z"/><path id="InterRegular-88" d="M158 0L158 -1490L338 -1490L338 -625L360 -625L838 -1118L1061 -1118L593 -638L1096 0L865 0L456 -523L338 -412L338 0L158 0Z"/><path id="InterSemiBold-114" d="M377 0L44 -1118L318 -1118L428 -680Q449 -588 474.5 -480.5Q500 -373 524 -246Q548 -370 574 -477.5Q600 -585 624 -680L737 -1118L985 -1118L1095 -680Q1117 -587 1143 -479.5Q1169 -372 1194 -246Q1217 -371 1241.5 -478.5Q1266 -586 1289 -680L1399 -1118L1675 -1118L1341 0L1078 0L947 -456Q924 -536 902 -630.5Q880 -725 859 -819Q838 -725 815.5 -630Q793 -535 771 -456L640 0L377 0Z"/><path id="InterSemiBold-80" d="M138 0L138 -1118L398 -1118L398 0L138 0ZM268 -1276Q206 -1276 161.5 -1317.5Q117 -1359 117 -1419Q117 -1478 161.5 -1519.5Q206 -1561 268 -1561Q331 -1561 375.5 -1519.5Q420 -1478 420 -1419Q420 -1359 375.5 -1317.5Q331 -1276 268 -1276Z"/><path id="InterSemiBold-106" d="M655 -1118L655 -914L439 -914L439 -315Q439 -254 464.5 -225.5Q490 -197 550 -197Q568 -197 597 -201.5Q626 -206 645 -210L686 -9Q643 4 598 9.5Q553 15 512 15Q351 15 265 -65Q179 -145 179 -293L179 -914L20 -914L20 -1118L179 -1118L179 -1384L439 -1384L439 -1118L655 -1118Z"/><path id="InterSemiBold-79" d="M398 -655L398 0L138 0L138 -1490L394 -1490L394 -911Q496 -1132 733 -1132Q906 -1132 1011 -1022Q1116 -912 1116 -711L1116 0L855 0L855 -671Q855 -783 797 -847Q739 -911 637 -911Q533 -911 465.5 -844Q398 -777 398 -655Z"/><path id="InterSemiBold-116" d="M127 399L188 196L219 204Q307 228 366 199.5Q425 171 445 75L461 4L39 -1118L317 -1118L521 -510Q545 -437 563 -364.5Q581 -292 597 -219Q616 -293 635.5 -365.5Q655 -438 680 -510L891 -1118L1166 -1118L686 144Q635 278 544 352Q453 426 301 426Q246 426 199.5 418Q153 410 127 399Z"/><path id="InterSemiBold-93" d="M623 23Q460 23 340 -49.5Q220 -122 154.5 -251.5Q89 -381 89 -553Q89 -727 154.5 -857.5Q220 -988 340 -1060Q460 -1132 623 -1132Q786 -1132 906 -1060Q1026 -988 1092 -857.5Q1158 -727 1158 -553Q1158 -381 1092 -251.5Q1026 -122 906 -49.5Q786 23 623 23ZM623 -188Q714 -188 774 -237Q834 -286 864 -369Q894 -452 894 -554Q894 -657 864 -740Q834 -823 774 -872Q714 -921 623 -921Q533 -921 473 -872Q413 -823 383.5 -740Q354 -657 354 -554Q354 -452 383.5 -369Q413 -286 473 -237Q533 -188 623 -188Z"/><path id="InterSemiBold-107" d="M521 14Q348 14 243 -96Q138 -206 138 -407L138 -1118L398 -1118L398 -447Q398 -335 456.5 -271Q515 -207 617 -207Q721 -207 788 -274Q855 -341 855 -463L855 -1118L1116 -1118L1116 0L869 0L867 -224Q767 14 521 14Z"/><path id="InterSemiBold-102" d="M138 0L138 -1118L390 -1118L390 -931L402 -931Q432 -1028 507 -1080.5Q582 -1133 678 -1133Q728 -1133 773 -1126L773 -887Q757 -891 721 -895.5Q685 -900 650 -900Q541 -900 469.5 -832.5Q398 -765 398 -658L398 0L138 0Z"/><path id="InterSemiBold-58" d="M450 23Q344 23 259 -15.5Q174 -54 125 -129Q76 -204 76 -314Q76 -440 137.5 -509.5Q199 -579 296.5 -610.5Q394 -642 502 -653Q648 -669 713 -682.5Q778 -696 778 -754L778 -759Q778 -841 728 -886.5Q678 -932 583 -932Q485 -932 427 -889Q369 -846 349 -791L108 -840Q157 -988 285.5 -1060Q414 -1132 582 -1132Q661 -1132 741.5 -1113.5Q822 -1095 889 -1051.5Q956 -1008 997 -933.5Q1038 -859 1038 -747L1038 0L789 0L789 -154L779 -154Q742 -82 661 -29.5Q580 23 450 23ZM517 -170Q637 -170 708.5 -239Q780 -308 780 -401L780 -533Q762 -519 716 -508.5Q670 -498 618.5 -490.5Q567 -483 533 -478Q445 -466 386.5 -430Q328 -394 328 -317Q328 -245 381 -207.5Q434 -170 517 -170Z"/><path id="InterSemiBold-100" d="M138 418L138 -1118L392 -1118L392 -933L409 -933Q428 -972 465 -1018.5Q502 -1065 566 -1098.5Q630 -1132 729 -1132Q858 -1132 962.5 -1066Q1067 -1000 1128.5 -871.5Q1190 -743 1190 -557Q1190 -373 1129.5 -244Q1069 -115 965 -47.5Q861 20 728 20Q632 20 568.5 -12.5Q505 -45 467 -91Q429 -137 409 -177L398 -177L398 418L138 418ZM658 -194Q788 -194 855.5 -297.5Q923 -401 923 -558Q923 -714 856.5 -816Q790 -918 658 -918Q529 -918 461 -819.5Q393 -721 393 -558Q393 -395 462 -294.5Q531 -194 658 -194Z"/><path id="InterSemiBold-113" d="M455 0L39 -1118L317 -1118L521 -510Q546 -436 565.5 -361Q585 -286 604 -210Q622 -286 641 -361Q660 -436 685 -510L888 -1118L1164 -1118L746 0L455 0Z"/><path id="InterSemiBold-89" d="M398 -1490L398 0L138 0L138 -1490L398 -1490Z"/><path id="InterSemiBold-163" d="M326 17Q259 17 212.5 -29Q166 -75 166 -143Q166 -210 212.5 -256Q259 -302 326 -302Q394 -302 440.5 -256Q487 -210 487 -143Q487 -75 440.5 -29Q394 17 326 17Z"/></defs><rect width="1200" height="260" fill="#0B1020"/><rect x="63" y="51" width="1037" height="2" fill="#262c39"/><g transform="translate(1110 42)" fill="none" stroke-linecap="round" stroke-linejoin="round"><path d="M3 3l7 7-7 7" stroke="#E5E7FB" stroke-width="2.4" opacity="0.55"/><path d="M13 3l7 7-7 7" stroke="#B9BEF9" stroke-width="2.4" opacity="0.7"/><path d="M23 3l7 7-7 7" stroke="#A78BFA" stroke-width="2.8"/></g><circle cx="64" cy="52" r="7" fill="#0B1020" stroke="#9aa7cc" stroke-width="2"/><g fill="#e6e9f0" transform="translate(0 94.32) scale(0.016)"><use href="#JetBrainsMonoSemiBold-153" x="3500"/><use href="#JetBrainsMonoSemiBold-69" x="4100"/><use href="#JetBrainsMonoSemiBold-105" x="4700"/><use href="#JetBrainsMonoSemiBold-73" x="5300"/><use href="#JetBrainsMonoSemiBold-116" x="5900"/><use href="#JetBrainsMonoSemiBold-161" x="6500"/><use href="#JetBrainsMonoSemiBold-102" x="7100"/><use href="#JetBrainsMonoSemiBold-91" x="7700"/><use href="#JetBrainsMonoSemiBold-60" x="8300"/><use href="#JetBrainsMonoSemiBold-93" x="8900"/></g><g fill="#9aa7cc" transform="translate(0 124.71) scale(0.006836)"><use href="#InterRegular-1" x="8192"/><use href="#InterRegular-91" x="9605"/><use href="#InterRegular-107" x="11391"/><use href="#InterRegular-91" x="12602"/><use href="#InterRegular-68" x="13812"/><use href="#InterRegular-89" x="14982"/><use href="#InterRegular-71" x="15478"/><use href="#InterRegular-58" x="16692"/><use href="#InterRegular-102" x="17842"/><use href="#InterRegular-102" x="19189"/><use href="#InterRegular-71" x="19926"/><use href="#InterRegular-101" x="21120"/><use href="#InterRegular-107" x="22374"/><use href="#InterRegular-71" x="23585"/><use href="#InterRegular-103" x="24779"/><use href="#InterRegular-106" x="25860"/><use href="#InterRegular-66" x="27106"/><use href="#InterRegular-71" x="28360"/><use href="#InterRegular-68" x="29554"/><use href="#InterRegular-93" x="30724"/><use href="#InterRegular-90" x="31952"/><use href="#InterRegular-71" x="33746"/><use href="#InterRegular-103" x="34940"/></g><g fill="#9aa7cc" transform="translate(0 145.71) scale(0.006836)"><use href="#InterRegular-58" x="8192"/><use href="#InterRegular-100" x="9918"/><use href="#InterRegular-89" x="11172"/><use href="#InterRegular-58" x="11668"/><use href="#InterRegular-91" x="12818"/><use href="#InterRegular-163" x="14028"/></g><circle cx="281.6" cy="52" r="7" fill="#0B1020" stroke="#9aa7cc" stroke-width="2"/><g fill="#e6e9f0" transform="translate(0 94.32) scale(0.016)"><use href="#JetBrainsMonoSemiBold-106" x="17100"/><use href="#JetBrainsMonoSemiBold-102" x="17700"/><use href="#JetBrainsMonoSemiBold-73" x="18300"/><use href="#JetBrainsMonoSemiBold-69" x="18900"/><use href="#JetBrainsMonoSemiBold-82" x="19500"/><use href="#JetBrainsMonoSemiBold-60" x="20100"/><use href="#JetBrainsMonoSemiBold-91" x="20700"/><use href="#JetBrainsMonoSemiBold-82" x="21300"/><use href="#JetBrainsMonoSemiBold-106" x="21900"/><use href="#JetBrainsMonoSemiBold-109" x="22500"/><use href="#JetBrainsMonoSemiBold-106" x="23100"/></g><g fill="#9aa7cc" transform="translate(0 124.71) scale(0.006836)"><use href="#InterRegular-46" x="40023.77"/><use href="#InterRegular-79" x="41345.77"/><use href="#InterRegular-71" x="42556.77"/><use href="#InterRegular-93" x="44326.77"/><use href="#InterRegular-114" x="45517.77"/><use href="#InterRegular-91" x="47193.77"/><use href="#InterRegular-80" x="48403.77"/><use href="#InterRegular-91" x="48899.77"/><use href="#InterRegular-77" x="50109.77"/><use href="#InterRegular-58" x="51941.77"/><use href="#InterRegular-77" x="53091.77"/><use href="#InterRegular-71" x="54347.77"/><use href="#InterRegular-91" x="55541.77"/><use href="#InterRegular-106" x="56751.77"/><use href="#InterRegular-114" x="57997.77"/><use href="#InterRegular-102" x="59673.77"/><use href="#InterRegular-80" x="60464.77"/><use href="#InterRegular-106" x="60960.77"/><use href="#InterRegular-71" x="61610.77"/><use href="#InterRegular-103" x="62804.77"/><use href="#InterRegular-106" x="64461.77"/><use href="#InterRegular-79" x="65131.77"/><use href="#InterRegular-71" x="66342.77"/></g><g fill="#9aa7cc" transform="translate(0 145.71) scale(0.006836)"><use href="#InterRegular-68" x="40023.77"/><use href="#InterRegular-79" x="41193.77"/><use href="#InterRegular-58" x="42404.77"/><use href="#InterRegular-91" x="43554.77"/><use href="#InterRegular-77" x="44764.77"/><use href="#InterRegular-71" x="46020.77"/><use href="#InterRegular-163" x="47214.77"/></g><circle cx="499.2" cy="52" r="7" fill="#0B1020" stroke="#9aa7cc" stroke-width="2"/><g fill="#e6e9f0" transform="translate(0 94.32) scale(0.016)"><use href="#JetBrainsMonoSemiBold-153" x="30700"/><use href="#JetBrainsMonoSemiBold-69" x="31300"/><use href="#JetBrainsMonoSemiBold-105" x="31900"/><use href="#JetBrainsMonoSemiBold-73" x="32500"/><use href="#JetBrainsMonoSemiBold-116" x="33100"/><use href="#JetBrainsMonoSemiBold-161" x="33700"/><use href="#JetBrainsMonoSemiBold-105" x="34300"/><use href="#JetBrainsMonoSemiBold-73" x="34900"/><use href="#JetBrainsMonoSemiBold-115" x="35500"/><use href="#JetBrainsMonoSemiBold-82" x="36100"/><use href="#JetBrainsMonoSemiBold-73" x="36700"/><use href="#JetBrainsMonoSemiBold-116" x="37300"/></g><g fill="#9aa7cc" transform="translate(0 124.71) scale(0.006836)"><use href="#InterRegular-44" x="71855.54"/><use href="#InterRegular-71" x="73169.54"/><use href="#InterRegular-68" x="74363.54"/><use href="#InterRegular-107" x="75533.54"/><use href="#InterRegular-102" x="76744.54"/><use href="#InterRegular-80" x="77535.54"/><use href="#InterRegular-106" x="78031.54"/><use href="#InterRegular-116" x="78741.54"/><use href="#InterRegular-162" x="79802.54"/><use href="#InterRegular-100" x="80968.54"/><use href="#InterRegular-102" x="82222.54"/><use href="#InterRegular-80" x="83013.54"/><use href="#InterRegular-113" x="83509.54"/><use href="#InterRegular-58" x="84650.54"/><use href="#InterRegular-68" x="85800.54"/><use href="#InterRegular-116" x="86930.54"/><use href="#InterRegular-162" x="87991.54"/><use href="#InterRegular-106" x="89157.54"/><use href="#InterRegular-71" x="89807.54"/><use href="#InterRegular-103" x="91001.54"/><use href="#InterRegular-106" x="92082.54"/><use href="#InterRegular-103" x="92732.54"/><use href="#InterRegular-162" x="93813.54"/></g><g fill="#9aa7cc" transform="translate(0 145.71) scale(0.006836)"><use href="#InterRegular-100" x="71855.54"/><use href="#InterRegular-71" x="73109.54"/><use href="#InterRegular-102" x="74303.54"/><use href="#InterRegular-76" x="75106.54"/><use href="#InterRegular-93" x="75804.54"/><use href="#InterRegular-102" x="77032.54"/><use href="#InterRegular-90" x="77835.54"/><use href="#InterRegular-58" x="79629.54"/><use href="#InterRegular-91" x="80779.54"/><use href="#InterRegular-68" x="81989.54"/><use href="#InterRegular-71" x="83159.54"/><use href="#InterRegular-163" x="84353.54"/></g><circle cx="716.8" cy="52" r="7" fill="#A78BFA" stroke="#A78BFA" stroke-width="2"/><g fill="#A78BFA" transform="translate(0 94.32) scale(0.016)"><use href="#JetBrainsMonoSemiBold-153" x="44300"/><use href="#JetBrainsMonoSemiBold-69" x="44900"/><use href="#JetBrainsMonoSemiBold-105" x="45500"/><use href="#JetBrainsMonoSemiBold-73" x="46100"/><use href="#JetBrainsMonoSemiBold-116" x="46700"/><use href="#JetBrainsMonoSemiBold-161" x="47300"/><use href="#JetBrainsMonoSemiBold-106" x="47900"/><use href="#JetBrainsMonoSemiBold-81" x="48500"/><use href="#JetBrainsMonoSemiBold-82" x="49100"/><use href="#JetBrainsMonoSemiBold-102" x="49700"/></g><g fill="#9aa7cc" transform="translate(0 124.71) scale(0.006836)"><use href="#InterRegular-46" x="103687.31"/><use href="#InterRegular-79" x="105009.31"/><use href="#InterRegular-71" x="106220.31"/><use href="#InterRegular-68" x="107990.31"/><use href="#InterRegular-93" x="109160.31"/><use href="#InterRegular-90" x="110388.31"/><use href="#InterRegular-90" x="112182.31"/><use href="#InterRegular-80" x="113976.31"/><use href="#InterRegular-106" x="114472.31"/><use href="#InterRegular-114" x="115718.31"/><use href="#InterRegular-58" x="117394.31"/><use href="#InterRegular-80" x="118544.31"/><use href="#InterRegular-106" x="119040.31"/><use href="#InterRegular-103" x="119690.31"/><use href="#InterRegular-76" x="121347.31"/><use href="#InterRegular-93" x="122045.31"/><use href="#InterRegular-102" x="123273.31"/><use href="#InterRegular-116" x="124620.31"/><use href="#InterRegular-93" x="125731.31"/><use href="#InterRegular-107" x="126959.31"/><use href="#InterRegular-102" x="128170.31"/></g><g fill="#9aa7cc" transform="translate(0 145.71) scale(0.006836)"><use href="#InterRegular-58" x="103687.31"/><use href="#InterRegular-100" x="104837.31"/><use href="#InterRegular-100" x="106091.31"/><use href="#InterRegular-102" x="107345.31"/><use href="#InterRegular-93" x="108082.31"/><use href="#InterRegular-113" x="109270.31"/><use href="#InterRegular-58" x="110411.31"/><use href="#InterRegular-89" x="111561.31"/><use href="#InterRegular-163" x="112057.31"/></g><circle cx="934.4" cy="52" r="7" fill="#0B1020" stroke="#9aa7cc" stroke-width="2"/><g fill="#e6e9f0" transform="translate(0 94.32) scale(0.016)"><use href="#JetBrainsMonoSemiBold-153" x="57900"/><use href="#JetBrainsMonoSemiBold-69" x="58500"/><use href="#JetBrainsMonoSemiBold-105" x="59100"/><use href="#JetBrainsMonoSemiBold-73" x="59700"/><use href="#JetBrainsMonoSemiBold-116" x="60300"/><use href="#JetBrainsMonoSemiBold-161" x="60900"/><use href="#JetBrainsMonoSemiBold-81" x="61500"/><use href="#JetBrainsMonoSemiBold-60" x="62100"/><use href="#JetBrainsMonoSemiBold-93" x="62700"/><use href="#JetBrainsMonoSemiBold-71" x="63300"/><use href="#JetBrainsMonoSemiBold-95" x="63900"/><use href="#JetBrainsMonoSemiBold-78" x="64500"/><use href="#JetBrainsMonoSemiBold-78" x="65100"/></g><g fill="#9aa7cc" transform="translate(0 124.71) scale(0.006836)"><use href="#InterRegular-44" x="135519.09"/><use href="#InterRegular-106" x="136833.09"/><use href="#InterRegular-58" x="137513.09"/><use href="#InterRegular-106" x="138663.09"/><use href="#InterRegular-71" x="139313.09"/><use href="#InterRegular-103" x="141083.09"/><use href="#InterRegular-58" x="142164.09"/><use href="#InterRegular-113" x="143284.09"/><use href="#InterRegular-71" x="144395.09"/><use href="#InterRegular-70" x="145589.09"/><use href="#InterRegular-162" x="146843.09"/><use href="#InterRegular-106" x="148009.09"/><use href="#InterRegular-79" x="148679.09"/><use href="#InterRegular-71" x="149890.09"/><use href="#InterRegular-91" x="151084.09"/><use href="#InterRegular-150" x="152870.09"/><use href="#InterRegular-68" x="153608.09"/><use href="#InterRegular-89" x="154778.09"/><use href="#InterRegular-71" x="155274.09"/><use href="#InterRegular-58" x="156488.09"/><use href="#InterRegular-102" x="157638.09"/><use href="#InterRegular-163" x="158281.09"/></g><g fill="#9aa7cc" transform="translate(0 220.62) scale(0.006836)"><use href="#InterRegular-13" x="8192"/><use href="#InterRegular-58" x="9423"/><use href="#InterRegular-68" x="10573"/><use href="#InterRegular-79" x="11743"/><use href="#InterRegular-103" x="13530"/><use href="#InterRegular-106" x="14611"/><use href="#InterRegular-71" x="15261"/><use href="#InterRegular-100" x="16455"/><use href="#InterRegular-68" x="18285"/><use href="#InterRegular-79" x="19455"/><use href="#InterRegular-71" x="20666"/><use href="#InterRegular-68" x="21860"/><use href="#InterRegular-88" x="23030"/><use href="#InterRegular-103" x="24154"/><use href="#InterRegular-106" x="25811"/><use href="#InterRegular-79" x="26481"/><use href="#InterRegular-71" x="27692"/><use href="#InterRegular-93" x="29462"/><use href="#InterRegular-91" x="30690"/><use href="#InterRegular-71" x="31900"/><use href="#InterRegular-66" x="33670"/><use href="#InterRegular-71" x="34924"/><use href="#InterRegular-76" x="36118"/><use href="#InterRegular-93" x="36816"/><use href="#InterRegular-102" x="38044"/><use href="#InterRegular-71" x="38781"/><use href="#InterRegular-80" x="40551"/><use href="#InterRegular-106" x="41047"/><use href="#InterRegular-163" x="41717"/><use href="#InterRegular-46" x="42883"/><use href="#InterRegular-79" x="44205"/><use href="#InterRegular-71" x="45416"/><use href="#InterRegular-68" x="47186"/><use href="#InterRegular-93" x="48356"/><use href="#InterRegular-90" x="49584"/><use href="#InterRegular-90" x="51378"/><use href="#InterRegular-80" x="53172"/><use href="#InterRegular-106" x="53668"/><use href="#InterRegular-68" x="54914"/><use href="#InterRegular-93" x="56084"/><use href="#InterRegular-90" x="57312"/><use href="#InterRegular-71" x="59106"/><use href="#InterRegular-103" x="60300"/><use href="#InterRegular-89" x="61957"/><use href="#InterRegular-58" x="62453"/><use href="#InterRegular-103" x="63603"/><use href="#InterRegular-106" x="64684"/><use href="#InterRegular-162" x="65354"/></g><g fill="#A78BFA" transform="translate(0 220.62) scale(0.006836)"><use href="#InterSemiBold-114" x="66520"/><use href="#InterSemiBold-80" x="68239"/><use href="#InterSemiBold-106" x="68775"/><use href="#InterSemiBold-79" x="69502"/><use href="#InterSemiBold-116" x="71272"/><use href="#InterSemiBold-93" x="72439"/><use href="#InterSemiBold-107" x="73686"/><use href="#InterSemiBold-102" x="74940"/><use href="#InterSemiBold-58" x="76269"/><use href="#InterSemiBold-100" x="77445"/><use href="#InterSemiBold-100" x="78723"/><use href="#InterSemiBold-102" x="80001"/><use href="#InterSemiBold-93" x="80769"/><use href="#InterSemiBold-113" x="81978"/><use href="#InterSemiBold-58" x="83163"/><use href="#InterSemiBold-89" x="84339"/><use href="#InterSemiBold-163" x="84875"/></g></svg>
