<svg viewBox="0 0 1300 1380" xmlns="http://www.w3.org/2000/svg" font-family="'Segoe UI',system-ui,-apple-system,Roboto,Helvetica,Arial,sans-serif" role="img" aria-label="Claude Starter Kit — agent/skill network"><defs><radialGradient id="bg" cx="50%" cy="48%" r="72%"><stop offset="0" stop-color="#101a34"/><stop offset="1" stop-color="#05070f"/></radialGradient><filter id="glow" x="-60%" y="-60%" width="220%" height="220%"><feGaussianBlur stdDeviation="3.2" result="b"/><feMerge><feMergeNode in="b"/><feMergeNode in="SourceGraphic"/></feMerge></filter><filter id="eglow" x="-30%" y="-30%" width="160%" height="160%"><feGaussianBlur stdDeviation="2.4"/></filter><filter id="corehalo" x="-90%" y="-90%" width="280%" height="280%"><feGaussianBlur stdDeviation="13" result="b"/><feMerge><feMergeNode in="b"/><feMergeNode in="SourceGraphic"/></feMerge></filter></defs><rect width="1300" height="1380" fill="url(#bg)"/><text x="650" y="62" text-anchor="middle" font-size="36" font-weight="800" fill="#f3f5ff" letter-spacing="-0.6">Claude Starter Kit</text><text x="650" y="92" text-anchor="middle" font-size="13" fill="#8b96c6" font-family="ui-monospace,Menlo,monospace" letter-spacing="2">11 AJAN × 36 SKILL · AŞAMAYA GÖRE GRUPLU · HER ÇİZGİ GERÇEK BİR "applies"</text><path d="M650.0,178.0 A512,512 0 0 1 887.7,236.5 L719.6,557.1 A150,150 0 0 0 650.0,540.0 Z" fill="#5b8cff" fill-opacity="0.07" stroke="#5b8cff" stroke-opacity="0.22" stroke-width="1"/><text x="781.0" y="157.9" text-anchor="middle" font-size="13" font-weight="800" fill="#5b8cff" font-family="ui-monospace,Menlo,monospace" letter-spacing="1.5">PLAN</text><path d="M926.3,259.0 A512,512 0 0 1 1045.3,1015.5 L765.8,785.3 A150,150 0 0 0 730.9,563.7 Z" fill="#34d17f" fill-opacity="0.07" stroke="#34d17f" stroke-opacity="0.22" stroke-width="1"/><text x="1191.3" y="604.9" text-anchor="middle" font-size="13" font-weight="800" fill="#34d17f" font-family="ui-monospace,Menlo,monospace" letter-spacing="1.5">BUILD</text><path d="M1015.4,1048.7 A512,512 0 0 1 686.1,1200.7 L660.6,839.6 A150,150 0 0 0 757.0,795.1 Z" fill="#26c6e6" fill-opacity="0.07" stroke="#26c6e6" stroke-opacity="0.22" stroke-width="1"/><text x="879.7" y="1187.5" text-anchor="middle" font-size="13" font-weight="800" fill="#26c6e6" font-family="ui-monospace,Menlo,monospace" letter-spacing="1.5">OPS</text><path d="M641.4,1201.9 A512,512 0 0 1 193.0,920.9 L516.1,757.7 A150,150 0 0 0 647.5,840.0 Z" fill="#ff9040" fill-opacity="0.07" stroke="#ff9040" stroke-opacity="0.22" stroke-width="1"/><text x="359.0" y="1154.4" text-anchor="middle" font-size="13" font-weight="800" fill="#ff9040" font-family="ui-monospace,Menlo,monospace" letter-spacing="1.5">AUDIT</text><path d="M174.6,880.2 A512,512 0 0 1 150.7,576.9 L503.7,656.9 A150,150 0 0 0 510.7,745.7 Z" fill="#a874f5" fill-opacity="0.07" stroke="#a874f5" stroke-opacity="0.22" stroke-width="1"/><text x="103.7" y="733.2" text-anchor="middle" font-size="13" font-weight="800" fill="#a874f5" font-family="ui-monospace,Menlo,monospace" letter-spacing="1.5">CLOSE</text><path d="M162.4,533.8 A512,512 0 0 1 249.4,371.2 L532.6,596.6 A150,150 0 0 0 507.2,644.2 Z" fill="#94a3c8" fill-opacity="0.07" stroke="#94a3c8" stroke-opacity="0.22" stroke-width="1"/><text x="166.8" y="431.6" text-anchor="middle" font-size="13" font-weight="800" fill="#94a3c8" font-family="ui-monospace,Menlo,monospace" letter-spacing="1.5">SESSION</text><path d="M278.7,337.5 A512,512 0 0 1 605.4,179.9 L636.9,540.6 A150,150 0 0 0 541.2,586.7 Z" fill="#c79bff" fill-opacity="0.07" stroke="#c79bff" stroke-opacity="0.22" stroke-width="1"/><text x="412.0" y="196.4" text-anchor="middle" font-size="13" font-weight="800" fill="#c79bff" font-family="ui-monospace,Menlo,monospace" letter-spacing="1.5">MAIN-THREAD</text><line x1="650" y1="690" x2="706.4" y2="460.8" stroke="#5b8cff" stroke-opacity="0.30" stroke-width="1.7"/><line x1="650" y1="690" x2="847.6" y2="561.0" stroke="#35c874" stroke-opacity="0.30" stroke-width="1.7"/><line x1="650" y1="690" x2="883.5" y2="724.3" stroke="#84e6b0" stroke-opacity="0.30" stroke-width="1.7"/><line x1="650" y1="690" x2="848.9" y2="817.0" stroke="#1e9b57" stroke-opacity="0.30" stroke-width="1.7"/><line x1="650" y1="690" x2="748.9" y2="904.3" stroke="#26c6e6" stroke-opacity="0.30" stroke-width="1.7"/><line x1="650" y1="690" x2="576.1" y2="914.1" stroke="#ff8a4d" stroke-opacity="0.30" stroke-width="1.7"/><line x1="650" y1="690" x2="490.7" y2="864.1" stroke="#ffbc8a" stroke-opacity="0.30" stroke-width="1.7"/><line x1="650" y1="690" x2="453.7" y2="821.0" stroke="#db5f1c" stroke-opacity="0.30" stroke-width="1.7"/><line x1="650" y1="690" x2="421.9" y2="750.7" stroke="#b07cf6" stroke-opacity="0.30" stroke-width="1.7"/><line x1="650" y1="690" x2="414.2" y2="680.1" stroke="#8659ee" stroke-opacity="0.30" stroke-width="1.7"/><line x1="650" y1="690" x2="441.9" y2="578.7" stroke="#9aa7cc" stroke-opacity="0.30" stroke-width="1.7"/><path d="M847.6,561.0 Q802.1,544.5 887.0,403.3" fill="none" stroke="#35c874" stroke-opacity="0.20" stroke-width="5" filter="url(#eglow)"/><path d="M847.6,561.0 Q802.1,544.5 887.0,403.3" fill="none" stroke="#35c874" stroke-opacity="0.72" stroke-width="1.7"/><path d="M847.6,561.0 Q832.4,537.4 973.5,382.9" fill="none" stroke="#35c874" stroke-opacity="0.20" stroke-width="5" filter="url(#eglow)"/><path d="M847.6,561.0 Q832.4,537.4 973.5,382.9" fill="none" stroke="#35c874" stroke-opacity="0.72" stroke-width="1.7"/><path d="M748.9,904.3 Q797.8,657.5 973.5,382.9" fill="none" stroke="#26c6e6" stroke-opacity="0.20" stroke-width="5" filter="url(#eglow)"/><path d="M748.9,904.3 Q797.8,657.5 973.5,382.9" fill="none" stroke="#26c6e6" stroke-opacity="0.72" stroke-width="1.7"/><path d="M883.5,724.3 Q844.9,594.5 973.5,382.9" fill="none" stroke="#84e6b0" stroke-opacity="0.20" stroke-width="5" filter="url(#eglow)"/><path d="M883.5,724.3 Q844.9,594.5 973.5,382.9" fill="none" stroke="#84e6b0" stroke-opacity="0.72" stroke-width="1.7"/><path d="M847.6,561.0 Q823.7,567.2 948.7,468.2" fill="none" stroke="#35c874" stroke-opacity="0.20" stroke-width="5" filter="url(#eglow)"/><path d="M847.6,561.0 Q823.7,567.2 948.7,468.2" fill="none" stroke="#35c874" stroke-opacity="0.72" stroke-width="1.7"/><path d="M847.6,561.0 Q854.8,567.5 1037.5,469.2" fill="none" stroke="#35c874" stroke-opacity="0.20" stroke-width="5" filter="url(#eglow)"/><path d="M847.6,561.0 Q854.8,567.5 1037.5,469.2" fill="none" stroke="#35c874" stroke-opacity="0.72" stroke-width="1.7"/><path d="M883.5,724.3 Q867.3,624.7 1037.5,469.2" fill="none" stroke="#84e6b0" stroke-opacity="0.20" stroke-width="5" filter="url(#eglow)"/><path d="M883.5,724.3 Q867.3,624.7 1037.5,469.2" fill="none" stroke="#84e6b0" stroke-opacity="0.72" stroke-width="1.7"/><path d="M847.6,561.0 Q839.2,594.5 993.0,546.0" fill="none" stroke="#35c874" stroke-opacity="0.20" stroke-width="5" filter="url(#eglow)"/><path d="M847.6,561.0 Q839.2,594.5 993.0,546.0" fill="none" stroke="#35c874" stroke-opacity="0.72" stroke-width="1.7"/><path d="M748.9,904.3 Q804.7,714.6 993.0,546.0" fill="none" stroke="#26c6e6" stroke-opacity="0.20" stroke-width="5" filter="url(#eglow)"/><path d="M748.9,904.3 Q804.7,714.6 993.0,546.0" fill="none" stroke="#26c6e6" stroke-opacity="0.72" stroke-width="1.7"/><path d="M883.5,724.3 Q851.8,651.6 993.0,546.0" fill="none" stroke="#84e6b0" stroke-opacity="0.20" stroke-width="5" filter="url(#eglow)"/><path d="M883.5,724.3 Q851.8,651.6 993.0,546.0" fill="none" stroke="#84e6b0" stroke-opacity="0.72" stroke-width="1.7"/><path d="M847.6,561.0 Q869.3,602.2 1079.0,568.2" fill="none" stroke="#35c874" stroke-opacity="0.20" stroke-width="5" filter="url(#eglow)"/><path d="M847.6,561.0 Q869.3,602.2 1079.0,568.2" fill="none" stroke="#35c874" stroke-opacity="0.72" stroke-width="1.7"/><path d="M748.9,904.3 Q834.8,722.4 1079.0,568.2" fill="none" stroke="#26c6e6" stroke-opacity="0.20" stroke-width="5" filter="url(#eglow)"/><path d="M748.9,904.3 Q834.8,722.4 1079.0,568.2" fill="none" stroke="#26c6e6" stroke-opacity="0.72" stroke-width="1.7"/><path d="M883.5,724.3 Q881.9,659.4 1079.0,568.2" fill="none" stroke="#84e6b0" stroke-opacity="0.20" stroke-width="5" filter="url(#eglow)"/><path d="M883.5,724.3 Q881.9,659.4 1079.0,568.2" fill="none" stroke="#84e6b0" stroke-opacity="0.72" stroke-width="1.7"/><path d="M847.6,561.0 Q671.0,765.8 512.4,1035.6" fill="none" stroke="#35c874" stroke-opacity="0.20" stroke-width="5" filter="url(#eglow)"/><path d="M847.6,561.0 Q671.0,765.8 512.4,1035.6" fill="none" stroke="#35c874" stroke-opacity="0.72" stroke-width="1.7"/><path d="M848.9,817.0 Q671.5,855.4 512.4,1035.6" fill="none" stroke="#1e9b57" stroke-opacity="0.20" stroke-width="5" filter="url(#eglow)"/><path d="M848.9,817.0 Q671.5,855.4 512.4,1035.6" fill="none" stroke="#1e9b57" stroke-opacity="0.72" stroke-width="1.7"/><path d="M576.1,914.1 Q576.0,889.4 512.4,1035.6" fill="none" stroke="#ff8a4d" stroke-opacity="0.20" stroke-width="5" filter="url(#eglow)"/><path d="M576.1,914.1 Q576.0,889.4 512.4,1035.6" fill="none" stroke="#ff8a4d" stroke-opacity="0.72" stroke-width="1.7"/><path d="M414.2,680.1 Q437.3,689.0 278.1,696.9" fill="none" stroke="#8659ee" stroke-opacity="0.20" stroke-width="5" filter="url(#eglow)"/><path d="M414.2,680.1 Q437.3,689.0 278.1,696.9" fill="none" stroke="#8659ee" stroke-opacity="0.72" stroke-width="1.7"/><path d="M414.2,680.1 Q412.2,670.6 206.3,644.5" fill="none" stroke="#8659ee" stroke-opacity="0.20" stroke-width="5" filter="url(#eglow)"/><path d="M414.2,680.1 Q412.2,670.6 206.3,644.5" fill="none" stroke="#8659ee" stroke-opacity="0.72" stroke-width="1.7"/><path d="M748.9,904.3 Q529.3,749.1 206.3,644.5" fill="none" stroke="#26c6e6" stroke-opacity="0.20" stroke-width="5" filter="url(#eglow)"/><path d="M748.9,904.3 Q529.3,749.1 206.3,644.5" fill="none" stroke="#26c6e6" stroke-opacity="0.72" stroke-width="1.7"/><path d="M848.9,817.0 Q829.4,804.5 963.6,890.2" fill="none" stroke="#1e9b57" stroke-opacity="0.20" stroke-width="5" filter="url(#eglow)"/><path d="M848.9,817.0 Q829.4,804.5 963.6,890.2" fill="none" stroke="#1e9b57" stroke-opacity="0.72" stroke-width="1.7"/><path d="M748.9,904.3 Q700.3,635.7 694.8,320.7" fill="none" stroke="#26c6e6" stroke-opacity="0.20" stroke-width="5" filter="url(#eglow)"/><path d="M748.9,904.3 Q700.3,635.7 694.8,320.7" fill="none" stroke="#26c6e6" stroke-opacity="0.72" stroke-width="1.7"/><path d="M706.4,460.8 Q685.4,480.5 694.8,320.7" fill="none" stroke="#5b8cff" stroke-opacity="0.20" stroke-width="5" filter="url(#eglow)"/><path d="M706.4,460.8 Q685.4,480.5 694.8,320.7" fill="none" stroke="#5b8cff" stroke-opacity="0.72" stroke-width="1.7"/><path d="M748.9,904.3 Q765.9,866.7 882.2,980.7" fill="none" stroke="#26c6e6" stroke-opacity="0.20" stroke-width="5" filter="url(#eglow)"/><path d="M748.9,904.3 Q765.9,866.7 882.2,980.7" fill="none" stroke="#26c6e6" stroke-opacity="0.72" stroke-width="1.7"/><path d="M748.9,904.3 Q766.7,897.8 884.4,1069.5" fill="none" stroke="#26c6e6" stroke-opacity="0.20" stroke-width="5" filter="url(#eglow)"/><path d="M748.9,904.3 Q766.7,897.8 884.4,1069.5" fill="none" stroke="#26c6e6" stroke-opacity="0.72" stroke-width="1.7"/><path d="M421.9,750.7 Q652.2,844.0 884.4,1069.5" fill="none" stroke="#b07cf6" stroke-opacity="0.20" stroke-width="5" filter="url(#eglow)"/><path d="M421.9,750.7 Q652.2,844.0 884.4,1069.5" fill="none" stroke="#b07cf6" stroke-opacity="0.72" stroke-width="1.7"/><path d="M748.9,904.3 Q739.2,883.2 806.0,1027.7" fill="none" stroke="#26c6e6" stroke-opacity="0.20" stroke-width="5" filter="url(#eglow)"/><path d="M748.9,904.3 Q739.2,883.2 806.0,1027.7" fill="none" stroke="#26c6e6" stroke-opacity="0.72" stroke-width="1.7"/><path d="M748.9,904.3 Q732.5,913.6 786.9,1114.5" fill="none" stroke="#26c6e6" stroke-opacity="0.20" stroke-width="5" filter="url(#eglow)"/><path d="M748.9,904.3 Q732.5,913.6 786.9,1114.5" fill="none" stroke="#26c6e6" stroke-opacity="0.72" stroke-width="1.7"/><path d="M748.9,904.3 Q709.4,892.8 720.7,1055.2" fill="none" stroke="#26c6e6" stroke-opacity="0.20" stroke-width="5" filter="url(#eglow)"/><path d="M748.9,904.3 Q709.4,892.8 720.7,1055.2" fill="none" stroke="#26c6e6" stroke-opacity="0.72" stroke-width="1.7"/><path d="M883.5,724.3 Q861.8,697.4 1021.8,676.9" fill="none" stroke="#84e6b0" stroke-opacity="0.20" stroke-width="5" filter="url(#eglow)"/><path d="M883.5,724.3 Q861.8,697.4 1021.8,676.9" fill="none" stroke="#84e6b0" stroke-opacity="0.72" stroke-width="1.7"/><path d="M883.5,724.3 Q887.3,715.3 1094.4,728.0" fill="none" stroke="#84e6b0" stroke-opacity="0.20" stroke-width="5" filter="url(#eglow)"/><path d="M883.5,724.3 Q887.3,715.3 1094.4,728.0" fill="none" stroke="#84e6b0" stroke-opacity="0.72" stroke-width="1.7"/><path d="M883.5,724.3 Q859.2,728.6 1014.1,766.1" fill="none" stroke="#84e6b0" stroke-opacity="0.20" stroke-width="5" filter="url(#eglow)"/><path d="M883.5,724.3 Q859.2,728.6 1014.1,766.1" fill="none" stroke="#84e6b0" stroke-opacity="0.72" stroke-width="1.7"/><path d="M883.5,724.3 Q879.6,752.1 1072.4,833.2" fill="none" stroke="#84e6b0" stroke-opacity="0.20" stroke-width="5" filter="url(#eglow)"/><path d="M883.5,724.3 Q879.6,752.1 1072.4,833.2" fill="none" stroke="#84e6b0" stroke-opacity="0.72" stroke-width="1.7"/><path d="M706.4,460.8 Q707.1,458.2 756.6,256.9" fill="none" stroke="#5b8cff" stroke-opacity="0.20" stroke-width="5" filter="url(#eglow)"/><path d="M706.4,460.8 Q707.1,458.2 756.6,256.9" fill="none" stroke="#5b8cff" stroke-opacity="0.72" stroke-width="1.7"/><path d="M706.4,460.8 Q715.9,488.0 781.8,342.1" fill="none" stroke="#5b8cff" stroke-opacity="0.20" stroke-width="5" filter="url(#eglow)"/><path d="M706.4,460.8 Q715.9,488.0 781.8,342.1" fill="none" stroke="#5b8cff" stroke-opacity="0.72" stroke-width="1.7"/><path d="M490.7,864.1 Q506.4,847.0 398.9,964.5" fill="none" stroke="#ffbc8a" stroke-opacity="0.20" stroke-width="5" filter="url(#eglow)"/><path d="M490.7,864.1 Q506.4,847.0 398.9,964.5" fill="none" stroke="#ffbc8a" stroke-opacity="0.72" stroke-width="1.7"/><path d="M421.9,750.7 Q444.3,744.7 290.5,785.6" fill="none" stroke="#b07cf6" stroke-opacity="0.20" stroke-width="5" filter="url(#eglow)"/><path d="M421.9,750.7 Q444.3,744.7 290.5,785.6" fill="none" stroke="#b07cf6" stroke-opacity="0.72" stroke-width="1.7"/><path d="M576.1,914.1 Q606.3,897.4 599.0,1058.5" fill="none" stroke="#ff8a4d" stroke-opacity="0.20" stroke-width="5" filter="url(#eglow)"/><path d="M576.1,914.1 Q606.3,897.4 599.0,1058.5" fill="none" stroke="#ff8a4d" stroke-opacity="0.72" stroke-width="1.7"/><path d="M576.1,914.1 Q584.3,919.4 536.2,1121.2" fill="none" stroke="#ff8a4d" stroke-opacity="0.20" stroke-width="5" filter="url(#eglow)"/><path d="M576.1,914.1 Q584.3,919.4 536.2,1121.2" fill="none" stroke="#ff8a4d" stroke-opacity="0.72" stroke-width="1.7"/><path d="M576.1,914.1 Q549.4,905.5 436.4,1081.5" fill="none" stroke="#ff8a4d" stroke-opacity="0.20" stroke-width="5" filter="url(#eglow)"/><path d="M576.1,914.1 Q549.4,905.5 436.4,1081.5" fill="none" stroke="#ff8a4d" stroke-opacity="0.72" stroke-width="1.7"/><path d="M441.9,578.7 Q458.9,596.7 312.0,534.7" fill="none" stroke="#9aa7cc" stroke-opacity="0.20" stroke-width="5" filter="url(#eglow)"/><path d="M441.9,578.7 Q458.9,596.7 312.0,534.7" fill="none" stroke="#9aa7cc" stroke-opacity="0.72" stroke-width="1.7"/><path d="M441.9,578.7 Q444.2,569.3 270.1,456.3" fill="none" stroke="#9aa7cc" stroke-opacity="0.20" stroke-width="5" filter="url(#eglow)"/><path d="M441.9,578.7 Q444.2,569.3 270.1,456.3" fill="none" stroke="#9aa7cc" stroke-opacity="0.72" stroke-width="1.7"/><path d="M453.7,821.0 Q473.0,808.1 340.6,896.5" fill="none" stroke="#db5f1c" stroke-opacity="0.20" stroke-width="5" filter="url(#eglow)"/><path d="M453.7,821.0 Q473.0,808.1 340.6,896.5" fill="none" stroke="#db5f1c" stroke-opacity="0.72" stroke-width="1.7"/><path d="M650.0,690.0 Q565.3,591.1 408.1,407.4" fill="none" stroke="#c79bff" stroke-opacity="0.22" stroke-width="5" filter="url(#eglow)"/><path d="M650.0,690.0 Q565.3,591.1 408.1,407.4" fill="none" stroke="#c79bff" stroke-opacity="0.85" stroke-width="1.8" stroke-dasharray="4 4"/><path d="M650.0,690.0 Q561.3,561.6 396.5,323.0" fill="none" stroke="#c79bff" stroke-opacity="0.22" stroke-width="5" filter="url(#eglow)"/><path d="M650.0,690.0 Q561.3,561.6 396.5,323.0" fill="none" stroke="#c79bff" stroke-opacity="0.85" stroke-width="1.8" stroke-dasharray="4 4"/><path d="M650.0,690.0 Q587.5,575.8 471.3,363.7" fill="none" stroke="#c79bff" stroke-opacity="0.22" stroke-width="5" filter="url(#eglow)"/><path d="M650.0,690.0 Q587.5,575.8 471.3,363.7" fill="none" stroke="#c79bff" stroke-opacity="0.85" stroke-width="1.8" stroke-dasharray="4 4"/><path d="M650.0,690.0 Q589.6,546.1 477.3,278.8" fill="none" stroke="#c79bff" stroke-opacity="0.22" stroke-width="5" filter="url(#eglow)"/><path d="M650.0,690.0 Q589.6,546.1 477.3,278.8" fill="none" stroke="#c79bff" stroke-opacity="0.85" stroke-width="1.8" stroke-dasharray="4 4"/><path d="M650.0,690.0 Q612.3,565.4 542.1,334.0" fill="none" stroke="#c79bff" stroke-opacity="0.22" stroke-width="5" filter="url(#eglow)"/><path d="M650.0,690.0 Q612.3,565.4 542.1,334.0" fill="none" stroke="#c79bff" stroke-opacity="0.85" stroke-width="1.8" stroke-dasharray="4 4"/><path d="M650.0,690.0 Q620.4,536.7 565.5,252.1" fill="none" stroke="#c79bff" stroke-opacity="0.22" stroke-width="5" filter="url(#eglow)"/><path d="M650.0,690.0 Q620.4,536.7 565.5,252.1" fill="none" stroke="#c79bff" stroke-opacity="0.85" stroke-width="1.8" stroke-dasharray="4 4"/><rect x="995.4" y="663.4" width="52.8" height="27" rx="13.5" fill="#0f1830" stroke="#84e6b0" stroke-width="1.6" filter="url(#glow)"/><text x="1021.8" y="681.1" text-anchor="middle" font-size="12.5" font-weight="600" fill="#eaf0ff">a11y</text><rect x="672.0" y="307.2" width="45.6" height="27" rx="13.5" fill="#0f1830" stroke="#5b8cff" stroke-width="1.6" filter="url(#glow)"/><text x="694.8" y="324.9" text-anchor="middle" font-size="12.5" font-weight="600" fill="#eaf0ff">adr</text><rect x="839.0" y="389.8" width="96.0" height="27" rx="13.5" fill="#0f1830" stroke="#35c874" stroke-width="1.6" filter="url(#glow)"/><text x="887.0" y="407.5" text-anchor="middle" font-size="12.5" font-weight="600" fill="#eaf0ff">api-design</text><rect x="708.6" y="243.4" width="96.0" height="27" rx="13.5" fill="#0f1830" stroke="#5b8cff" stroke-width="1.6" filter="url(#glow)"/><text x="756.6" y="261.1" text-anchor="middle" font-size="12.5" font-weight="600" fill="#eaf0ff">brainstorm</text><rect x="830.6" y="967.2" width="103.2" height="27" rx="13.5" fill="#0f1830" stroke="#26c6e6" stroke-width="1.6" filter="url(#glow)"/><text x="882.2" y="984.9" text-anchor="middle" font-size="12.5" font-weight="600" fill="#eaf0ff">ci-pipeline</text><rect x="238.9" y="772.1" width="103.2" height="27" rx="13.5" fill="#0f1830" stroke="#b07cf6" stroke-width="1.6" filter="url(#glow)"/><text x="290.5" y="789.8" text-anchor="middle" font-size="12.5" font-weight="600" fill="#eaf0ff">code-review</text><rect x="215.7" y="683.4" width="124.8" height="27" rx="13.5" fill="#0f1830" stroke="#8659ee" stroke-width="1.6" filter="url(#glow)"/><text x="278.1" y="701.1" text-anchor="middle" font-size="12.5" font-weight="600" fill="#eaf0ff">commit-message</text><rect x="908.4" y="876.7" width="110.4" height="27" rx="13.5" fill="#0f1830" stroke="#1e9b57" stroke-width="1.6" filter="url(#glow)"/><text x="963.6" y="894.4" text-anchor="middle" font-size="12.5" font-weight="600" fill="#eaf0ff">db-migration</text><rect x="903.9" y="369.4" width="139.2" height="27" rx="13.5" fill="#0f1830" stroke="#35c874" stroke-width="1.6" filter="url(#glow)"/><text x="973.5" y="387.1" text-anchor="middle" font-size="12.5" font-weight="600" fill="#eaf0ff">dependency-audit</text><rect x="886.3" y="454.7" width="124.8" height="27" rx="13.5" fill="#0f1830" stroke="#35c874" stroke-width="1.6" filter="url(#glow)"/><text x="948.7" y="472.4" text-anchor="middle" font-size="12.5" font-weight="600" fill="#eaf0ff">devarch-module</text><rect x="832.8" y="1056.0" width="103.2" height="27" rx="13.5" fill="#0f1830" stroke="#26c6e6" stroke-width="1.6" filter="url(#glow)"/><text x="884.4" y="1073.7" text-anchor="middle" font-size="12.5" font-weight="600" fill="#eaf0ff">docs-writer</text><rect x="513.9" y="238.6" width="103.2" height="27" rx="13.5" fill="#0f1830" stroke="#c79bff" stroke-width="1.6" filter="url(#glow)"/><text x="565.5" y="256.3" text-anchor="middle" font-size="12.5" font-weight="600" fill="#eaf0ff">eval-grader</text><rect x="1053.6" y="714.5" width="81.6" height="27" rx="13.5" fill="#0f1830" stroke="#84e6b0" stroke-width="1.6" filter="url(#glow)"/><text x="1094.4" y="732.2" text-anchor="middle" font-size="12.5" font-weight="600" fill="#eaf0ff">frontend</text><rect x="948.1" y="752.6" width="132.0" height="27" rx="13.5" fill="#0f1830" stroke="#84e6b0" stroke-width="1.6" filter="url(#glow)"/><text x="1014.1" y="770.3" text-anchor="middle" font-size="12.5" font-weight="600" fill="#eaf0ff">frontend-design</text><rect x="1002.8" y="819.7" width="139.2" height="27" rx="13.5" fill="#0f1830" stroke="#84e6b0" stroke-width="1.6" filter="url(#glow)"/><text x="1072.4" y="837.4" text-anchor="middle" font-size="12.5" font-weight="600" fill="#eaf0ff">frontend-rn-expo</text><rect x="274.8" y="521.2" width="74.4" height="27" rx="13.5" fill="#0f1830" stroke="#9aa7cc" stroke-width="1.6" filter="url(#glow)"/><text x="312.0" y="538.9" text-anchor="middle" font-size="12.5" font-weight="600" fill="#eaf0ff">handoff</text><rect x="975.1" y="455.7" width="124.8" height="27" rx="13.5" fill="#0f1830" stroke="#35c874" stroke-width="1.6" filter="url(#glow)"/><text x="1037.5" y="473.4" text-anchor="middle" font-size="12.5" font-weight="600" fill="#eaf0ff">i18n-integrity</text><rect x="736.4" y="1014.2" width="139.2" height="27" rx="13.5" fill="#0f1830" stroke="#26c6e6" stroke-width="1.6" filter="url(#glow)"/><text x="806.0" y="1031.9" text-anchor="middle" font-size="12.5" font-weight="600" fill="#eaf0ff">incident-runbook</text><rect x="359.3" y="309.5" width="74.4" height="27" rx="13.5" fill="#0f1830" stroke="#c79bff" stroke-width="1.6" filter="url(#glow)"/><text x="396.5" y="327.2" text-anchor="middle" font-size="12.5" font-weight="600" fill="#eaf0ff">iterate</text><rect x="490.5" y="320.5" width="103.2" height="27" rx="13.5" fill="#0f1830" stroke="#c79bff" stroke-width="1.6" filter="url(#glow)"/><text x="542.1" y="338.2" text-anchor="middle" font-size="12.5" font-weight="600" fill="#eaf0ff">mcp-builder</text><rect x="934.2" y="532.5" width="117.6" height="27" rx="13.5" fill="#0f1830" stroke="#35c874" stroke-width="1.6" filter="url(#glow)"/><text x="993.0" y="550.2" text-anchor="middle" font-size="12.5" font-weight="600" fill="#eaf0ff">observability</text><rect x="1027.4" y="554.7" width="103.2" height="27" rx="13.5" fill="#0f1830" stroke="#35c874" stroke-width="1.6" filter="url(#glow)"/><text x="1079.0" y="572.4" text-anchor="middle" font-size="12.5" font-weight="600" fill="#eaf0ff">performance</text><rect x="322.1" y="951.0" width="153.6" height="27" rx="13.5" fill="#0f1830" stroke="#ffbc8a" stroke-width="1.6" filter="url(#glow)"/><text x="398.9" y="968.7" text-anchor="middle" font-size="12.5" font-weight="600" fill="#eaf0ff">privacy-compliance</text><rect x="558.2" y="1045.0" width="81.6" height="27" rx="13.5" fill="#0f1830" stroke="#ff8a4d" stroke-width="1.6" filter="url(#glow)"/><text x="599.0" y="1062.7" text-anchor="middle" font-size="12.5" font-weight="600" fill="#eaf0ff">red-team</text><rect x="434.1" y="350.2" width="74.4" height="27" rx="13.5" fill="#0f1830" stroke="#c79bff" stroke-width="1.6" filter="url(#glow)"/><text x="471.3" y="367.9" text-anchor="middle" font-size="12.5" font-weight="600" fill="#eaf0ff">reflect</text><rect x="169.1" y="631.0" width="74.4" height="27" rx="13.5" fill="#0f1830" stroke="#8659ee" stroke-width="1.6" filter="url(#glow)"/><text x="206.3" y="648.7" text-anchor="middle" font-size="12.5" font-weight="600" fill="#eaf0ff">release</text><rect x="477.4" y="1107.7" width="117.6" height="27" rx="13.5" fill="#0f1830" stroke="#ff8a4d" stroke-width="1.6" filter="url(#glow)"/><text x="536.2" y="1125.4" text-anchor="middle" font-size="12.5" font-weight="600" fill="#eaf0ff">security-scan</text><rect x="446.4" y="1022.1" width="132.0" height="27" rx="13.5" fill="#0f1830" stroke="#ff8a4d" stroke-width="1.6" filter="url(#glow)"/><text x="512.4" y="1039.8" text-anchor="middle" font-size="12.5" font-weight="600" fill="#eaf0ff">sonarqube-check</text><rect x="723.0" y="328.6" width="117.6" height="27" rx="13.5" fill="#0f1830" stroke="#5b8cff" stroke-width="1.6" filter="url(#glow)"/><text x="781.8" y="346.3" text-anchor="middle" font-size="12.5" font-weight="600" fill="#eaf0ff">spec-planning</text><rect x="324.1" y="393.9" width="168.0" height="27" rx="13.5" fill="#0f1830" stroke="#c79bff" stroke-width="1.6" filter="url(#glow)"/><text x="408.1" y="411.6" text-anchor="middle" font-size="12.5" font-weight="600" fill="#eaf0ff">systematic-debugging</text><rect x="303.4" y="883.0" width="74.4" height="27" rx="13.5" fill="#0f1830" stroke="#db5f1c" stroke-width="1.6" filter="url(#glow)"/><text x="340.6" y="900.7" text-anchor="middle" font-size="12.5" font-weight="600" fill="#eaf0ff">testing</text><rect x="381.2" y="1068.0" width="110.4" height="27" rx="13.5" fill="#0f1830" stroke="#ff8a4d" stroke-width="1.6" filter="url(#glow)"/><text x="436.4" y="1085.7" text-anchor="middle" font-size="12.5" font-weight="600" fill="#eaf0ff">threat-model</text><rect x="214.9" y="442.8" width="110.4" height="27" rx="13.5" fill="#0f1830" stroke="#9aa7cc" stroke-width="1.6" filter="url(#glow)"/><text x="270.1" y="460.5" text-anchor="middle" font-size="12.5" font-weight="600" fill="#eaf0ff">token-budget</text><rect x="738.9" y="1101.0" width="96.0" height="27" rx="13.5" fill="#0f1830" stroke="#26c6e6" stroke-width="1.6" filter="url(#glow)"/><text x="786.9" y="1118.7" text-anchor="middle" font-size="12.5" font-weight="600" fill="#eaf0ff">trace-scan</text><rect x="672.7" y="1041.7" width="96.0" height="27" rx="13.5" fill="#0f1830" stroke="#26c6e6" stroke-width="1.6" filter="url(#glow)"/><text x="720.7" y="1059.4" text-anchor="middle" font-size="12.5" font-weight="600" fill="#eaf0ff">vps-deploy</text><rect x="436.5" y="265.3" width="81.6" height="27" rx="13.5" fill="#0f1830" stroke="#c79bff" stroke-width="1.6" filter="url(#glow)"/><text x="477.3" y="283.0" text-anchor="middle" font-size="12.5" font-weight="600" fill="#eaf0ff">worktree</text><circle cx="706.4" cy="460.8" r="35" fill="#5b8cff" filter="url(#glow)"/><circle cx="706.4" cy="460.8" r="35" fill="none" stroke="#ffffff" stroke-opacity="0.85" stroke-width="2"/><text x="706.4" y="465.3" text-anchor="middle" font-size="12.5" font-weight="700" fill="#0b1220">planner</text><circle cx="847.6" cy="561.0" r="35" fill="#35c874" filter="url(#glow)"/><circle cx="847.6" cy="561.0" r="35" fill="none" stroke="#ffffff" stroke-opacity="0.85" stroke-width="2"/><text x="847.6" y="565.5" text-anchor="middle" font-size="12.5" font-weight="700" fill="#0b1220">backend</text><circle cx="883.5" cy="724.3" r="35" fill="#84e6b0" filter="url(#glow)"/><circle cx="883.5" cy="724.3" r="35" fill="none" stroke="#ffffff" stroke-opacity="0.85" stroke-width="2"/><text x="883.5" y="728.8" text-anchor="middle" font-size="12.5" font-weight="700" fill="#0b1220">frontend</text><circle cx="848.9" cy="817.0" r="35" fill="#1e9b57" filter="url(#glow)"/><circle cx="848.9" cy="817.0" r="35" fill="none" stroke="#ffffff" stroke-opacity="0.85" stroke-width="2"/><text x="848.9" y="821.5" text-anchor="middle" font-size="12.5" font-weight="700" fill="#0b1220">database</text><circle cx="748.9" cy="904.3" r="35" fill="#26c6e6" filter="url(#glow)"/><circle cx="748.9" cy="904.3" r="35" fill="none" stroke="#ffffff" stroke-opacity="0.85" stroke-width="2"/><text x="748.9" y="908.8" text-anchor="middle" font-size="12.5" font-weight="700" fill="#0b1220">devops</text><circle cx="576.1" cy="914.1" r="35" fill="#ff8a4d" filter="url(#glow)"/><circle cx="576.1" cy="914.1" r="35" fill="none" stroke="#ffffff" stroke-opacity="0.85" stroke-width="2"/><text x="576.1" y="918.6" text-anchor="middle" font-size="12.5" font-weight="700" fill="#0b1220">security</text><circle cx="490.7" cy="864.1" r="35" fill="#ffbc8a" filter="url(#glow)"/><circle cx="490.7" cy="864.1" r="35" fill="none" stroke="#ffffff" stroke-opacity="0.85" stroke-width="2"/><text x="490.7" y="868.6" text-anchor="middle" font-size="12.5" font-weight="700" fill="#0b1220">privacy</text><circle cx="453.7" cy="821.0" r="35" fill="#db5f1c" filter="url(#glow)"/><circle cx="453.7" cy="821.0" r="35" fill="none" stroke="#ffffff" stroke-opacity="0.85" stroke-width="2"/><text x="453.7" y="825.5" text-anchor="middle" font-size="12.5" font-weight="700" fill="#0b1220">test</text><circle cx="421.9" cy="750.7" r="35" fill="#b07cf6" filter="url(#glow)"/><circle cx="421.9" cy="750.7" r="35" fill="none" stroke="#ffffff" stroke-opacity="0.85" stroke-width="2"/><text x="421.9" y="755.2" text-anchor="middle" font-size="12.5" font-weight="700" fill="#0b1220">review</text><circle cx="414.2" cy="680.1" r="35" fill="#8659ee" filter="url(#glow)"/><circle cx="414.2" cy="680.1" r="35" fill="none" stroke="#ffffff" stroke-opacity="0.85" stroke-width="2"/><text x="414.2" y="684.6" text-anchor="middle" font-size="12.5" font-weight="700" fill="#0b1220">commit</text><circle cx="441.9" cy="578.7" r="35" fill="#9aa7cc" filter="url(#glow)"/><circle cx="441.9" cy="578.7" r="35" fill="none" stroke="#ffffff" stroke-opacity="0.85" stroke-width="2"/><text x="441.9" y="583.2" text-anchor="middle" font-size="12.5" font-weight="700" fill="#0b1220">session</text><circle cx="650" cy="690" r="64" fill="#0B1020" filter="url(#corehalo)"/><circle cx="650" cy="690" r="64" fill="none" stroke="#7C3AED" stroke-opacity="0.75" stroke-width="2"/><g transform="translate(602,642) scale(0.48)"><rect width="200" height="200" rx="46" fill="#0B1020"/><g transform="rotate(20 100 100)"><rect x="58" y="38" width="22" height="124" rx="11" fill="#E5E7FB"/><rect x="88" y="38" width="22" height="124" rx="11" fill="#B9BEF9"/><rect x="118" y="32" width="26" height="136" rx="13" fill="#A78BFA"/></g></g></svg>